<svg version="1.1" viewBox="0.0 0.0 64.0 64.0" fill="none" stroke="none" stroke-linecap="square" stroke-miterlimit="10" xmlns:xlink="http://www.w3.org/1999/xlink" xmlns="http://www.w3.org/2000/svg"><clipPath id="p.0"><path d="m0 0l64.0 0l0 64.0l-64.0 0l0 -64.0z" clip-rule="nonzero"/></clipPath><g clip-path="url(#p.0)"><path fill="#000000" fill-opacity="0.0" d="m0 0l64.0 0l0 64.0l-64.0 0z" fill-rule="evenodd"/><path fill="#000000" fill-opacity="0.0" d="m51.852364 33.918636l10.110237 0" fill-rule="evenodd"/><path stroke="#b7b7b7" stroke-width="3.0" stroke-linejoin="round" stroke-linecap="butt" d="m51.852364 33.918636l10.110237 0" fill-rule="evenodd"/><path fill="#000000" fill-opacity="0.0" d="m-13.126963 10.9921255l57.95276 0l0 42.015747l-57.95276 0z" fill-rule="evenodd"/><path fill="#60b0f4" d="m18.247005 49.858124q-7.296875 0 -12.046875 -4.703125q-4.75 -4.703125 -4.75 -11.859375q0 -7.203125 4.71875 -11.875q4.734375 -4.6875 12.078125 -4.6875q8.312502 0 12.859377 7.203125l-4.796875 2.453125q-1.140625 -2.015625 -3.3125 -3.328125q-2.15625 -1.328125 -4.750002 -1.328125q-4.796875 0 -7.921875 3.296875q-3.109375 3.28125 -3.109375 8.265625q0 5.0 3.09375 8.28125q3.09375 3.28125 7.9375 3.28125q2.593752 0 4.750002 -1.3125q2.171875 -1.328125 3.3125 -3.34375l4.796875 2.453125q-4.546875 7.203125 -12.859377 7.203125z" fill-rule="nonzero"/><path fill="#000000" fill-opacity="0.0" d="m20.482868 11.3046255l34.582676 0l0 42.015747l-34.582676 0z" fill-rule="evenodd"/><path fill="#b7b7b7" d="m31.561363 41.9125l0 -17.781248l7.8125 0q2.609375 0 4.203125 1.578125q1.609375 1.5625 1.609375 4.0q0 2.453123 -1.640625 4.015623q-1.640625 1.546875 -4.171875 1.546875l-4.6875 0l0 6.640625l-3.125 0zm7.390625 -9.390625q1.328125 0 2.171875 -0.7656231q0.859375 -0.765625 0.859375 -2.046875q0 -1.28125 -0.859375 -2.046875q-0.84375 -0.78125 -2.171875 -0.78125l-4.265625 0l0 5.640623l4.265625 0z" fill-rule="nonzero"/><path fill="#000000" fill-opacity="0.0" d="m26.239115 33.918472l13.543306 0" fill-rule="evenodd"/><path stroke="#ff0000" stroke-width="3.0" stroke-linejoin="round" stroke-linecap="butt" d="m26.239115 33.918472l13.543306 0" fill-rule="evenodd"/><path fill="#000000" fill-opacity="0.0" d="m33.089344 26.905313l0 14.992128" fill-rule="evenodd"/><path stroke="#ff0000" stroke-width="3.0" stroke-linejoin="round" stroke-linecap="butt" d="m33.089344 26.905313l0 14.992128" fill-rule="evenodd"/><path fill="#000000" fill-opacity="0.0" d="m44.777718 33.918472l13.543308 0" fill-rule="evenodd"/><path stroke="#ff0000" stroke-width="3.0" stroke-linejoin="round" stroke-linecap="butt" d="m44.777718 33.918472l13.543308 0" fill-rule="evenodd"/><path fill="#000000" fill-opacity="0.0" d="m50.077263 25.519194l12.22047 0" fill-rule="evenodd"/><path stroke="#b7b7b7" stroke-width="3.0" stroke-linejoin="round" stroke-linecap="butt" d="m50.077263 25.519194l12.22047 0" fill-rule="evenodd"/><path fill="#000000" fill-opacity="0.0" d="m51.547737 26.986843l0 14.992126" fill-rule="evenodd"/><path stroke="#ff0000" stroke-width="3.0" stroke-linejoin="round" stroke-linecap="butt" d="m51.547737 26.986843l0 14.992126" fill-rule="evenodd"/></g></svg>