<svg version="1.1" viewBox="0.0 0.0 64.0 64.0" fill="none" stroke="none" stroke-linecap="square" stroke-miterlimit="10" xmlns:xlink="http://www.w3.org/1999/xlink" xmlns="http://www.w3.org/2000/svg"><clipPath id="p.0"><path d="m0 0l64.0 0l0 64.0l-64.0 0l0 -64.0z" clip-rule="nonzero"/></clipPath><g clip-path="url(#p.0)"><path fill="#000000" fill-opacity="0.0" d="m0 0l64.0 0l0 64.0l-64.0 0z" fill-rule="evenodd"/><path fill="#000000" fill-opacity="0.0" d="m51.200134 33.918636l10.110237 0" fill-rule="evenodd"/><path stroke="#b7b7b7" stroke-width="4.0" stroke-linejoin="round" stroke-linecap="butt" d="m51.200134 33.918636l10.110237 0" fill-rule="evenodd"/><path fill="#000000" fill-opacity="0.0" d="m-12.312336 -6.562826l83.65355 0l0 72.88189l-83.65355 0z" fill-rule="evenodd"/><path fill="#60b0f4" d="m33.51571 59.63124q-12.15625 0 -20.078125 -7.828125q-7.921875 -7.84375 -7.921875 -19.765625q0 -11.999998 7.875 -19.796873q7.890625 -7.796875 20.125 -7.796875q13.84375 0 21.437504 12.0l-8.000004 4.078125q-1.921875 -3.359375 -5.53125 -5.5625q-3.59375 -2.203125 -7.90625 -2.203125q-8.0 0 -13.203125 5.484375q-5.203125 5.484375 -5.203125 13.796873q0 8.328125 5.15625 13.8125q5.171875 5.46875 13.25 5.46875q4.3125 0 7.90625 -2.203125q3.609375 -2.203125 5.53125 -5.5625l8.000004 4.078125q-7.593754 12.0 -21.437504 12.0z" fill-rule="nonzero"/><path fill="#000000" fill-opacity="0.0" d="m17.75867 10.652397l34.582676 0l0 42.015747l-34.582676 0z" fill-rule="evenodd"/><path fill="#b7b7b7" d="m28.69617 42.220272l0 -19.5625l9.15625 0q2.984375 0 4.765625 1.75q1.796875 1.734375 1.796875 4.5625q0 2.78125 -1.84375 4.546875q-1.828125 1.75 -4.71875 1.75l-5.0 0l0 6.953125l-4.15625 0zm8.59375 -10.609375q1.234375 0 2.046875 -0.703125q0.828125 -0.71875 0.828125 -1.9375q0 -1.234375 -0.828125 -1.9375q-0.8125 -0.703125 -2.046875 -0.703125l-4.4375 0l0 5.28125l4.4375 0z" fill-rule="nonzero"/><path fill="#000000" fill-opacity="0.0" d="m24.119371 33.51083l13.543306 0" fill-rule="evenodd"/><path stroke="#ff0000" stroke-width="4.0" stroke-linejoin="round" stroke-linecap="butt" d="m24.119371 33.51083l13.543306 0" fill-rule="evenodd"/><path fill="#000000" fill-opacity="0.0" d="m30.724245 26.251968l0 15.905514" fill-rule="evenodd"/><path stroke="#ff0000" stroke-width="4.0" stroke-linejoin="round" stroke-linecap="butt" d="m30.724245 26.251968l0 15.905514" fill-rule="evenodd"/><path fill="#000000" fill-opacity="0.0" d="m44.12549 33.918472l13.543308 0" fill-rule="evenodd"/><path stroke="#ff0000" stroke-width="4.0" stroke-linejoin="round" stroke-linecap="butt" d="m44.12549 33.918472l13.543308 0" fill-rule="evenodd"/><path fill="#000000" fill-opacity="0.0" d="m48.83596 24.705053l12.818897 0" fill-rule="evenodd"/><path stroke="#b7b7b7" stroke-width="4.0" stroke-linejoin="round" stroke-linecap="butt" d="m48.83596 24.705053l12.818897 0" fill-rule="evenodd"/><path fill="#000000" fill-opacity="0.0" d="m50.896328 26.658792l0 15.338583" fill-rule="evenodd"/><path stroke="#ff0000" stroke-width="4.0" stroke-linejoin="round" stroke-linecap="butt" d="m50.896328 26.658792l0 15.338583" fill-rule="evenodd"/></g></svg>